<svg width="14" height="14" viewBox="0 0 14 14" fill="none" xmlns="http://www.w3.org/2000/svg">
<path d="M7.30793 5.3548C6.80356 5.3548 6.31986 5.55516 5.96322 5.9118C5.60658 6.26844 5.40622 6.75215 5.40622 7.25651C5.40622 7.76088 5.60658 8.24458 5.96322 8.60122C6.31986 8.95786 6.80356 9.15822 7.30793 9.15822C7.81229 9.15822 8.296 8.95786 8.65264 8.60122C9.00928 8.24458 9.20964 7.76088 9.20964 7.25651C9.20964 6.75215 9.00928 6.26844 8.65264 5.9118C8.296 5.55516 7.81229 5.3548 7.30793 5.3548ZM7.30793 4.087C8.14854 4.087 8.95471 4.42093 9.54911 5.01533C10.1435 5.60973 10.4774 6.4159 10.4774 7.25651C10.4774 8.09712 10.1435 8.9033 9.54911 9.4977C8.95471 10.0921 8.14854 10.426 7.30793 10.426C6.46732 10.426 5.66114 10.0921 5.06674 9.4977C4.47234 8.9033 4.13841 8.09712 4.13841 7.25651C4.13841 6.4159 4.47234 5.60973 5.06674 5.01533C5.66114 4.42093 6.46732 4.087 7.30793 4.087ZM11.4283 3.92852C11.4283 4.13867 11.3448 4.34022 11.1962 4.48882C11.0476 4.63742 10.8461 4.7209 10.6359 4.7209C10.4258 4.7209 10.2242 4.63742 10.0756 4.48882C9.92702 4.34022 9.84354 4.13867 9.84354 3.92852C9.84354 3.71837 9.92702 3.51682 10.0756 3.36822C10.2242 3.21962 10.4258 3.13614 10.6359 3.13614C10.8461 3.13614 11.0476 3.21962 11.1962 3.36822C11.3448 3.51682 11.4283 3.71837 11.4283 3.92852ZM7.30793 2.18529C5.73965 2.18529 5.48355 2.18972 4.75393 2.22205C4.25695 2.24551 3.92352 2.31207 3.61417 2.43251C3.3553 2.52755 3.12126 2.6799 2.92956 2.87814C2.73115 3.06983 2.5786 3.30386 2.48329 3.56276C2.36285 3.87337 2.29629 4.20617 2.27347 4.70252C2.24051 5.40235 2.23607 5.64703 2.23607 7.25651C2.23607 8.82542 2.24051 9.08088 2.27283 9.81051C2.29629 10.3069 2.36285 10.6409 2.48266 10.9496C2.59042 11.2254 2.7172 11.4238 2.92766 11.6342C3.14128 11.8472 3.33969 11.9747 3.61227 12.0799C3.92542 12.201 4.25885 12.2681 4.7533 12.291C5.45313 12.3239 5.69781 12.3277 7.30729 12.3277C8.8762 12.3277 9.13167 12.3233 9.86129 12.291C10.357 12.2675 10.6904 12.201 11.0004 12.0811C11.2591 11.9856 11.493 11.8334 11.685 11.6355C11.8987 11.4225 12.0261 11.2241 12.1313 10.9509C12.2517 10.639 12.3189 10.3056 12.3418 9.80987C12.3747 9.11068 12.3785 8.86536 12.3785 7.25651C12.3785 5.68824 12.3741 5.43214 12.3418 4.70252C12.3183 4.2068 12.2511 3.8721 12.1313 3.56276C12.0357 3.30414 11.8835 3.0702 11.6857 2.87814C11.4941 2.67963 11.26 2.52707 11.001 2.43187C10.6904 2.31143 10.357 2.24487 9.86129 2.22205C9.16209 2.18909 8.91741 2.18529 7.30729 2.18529M7.30729 0.91748C9.02961 0.91748 9.2445 0.923819 9.92088 0.955515C10.5953 0.98721 11.0556 1.09307 11.4594 1.25028C11.8777 1.41129 12.2302 1.62935 12.5826 1.98117C12.905 2.29806 13.1544 2.68137 13.3135 3.10445C13.4701 3.50824 13.5766 3.96846 13.6083 4.64356C13.6381 5.3193 13.6463 5.5342 13.6463 7.25651C13.6463 8.97883 13.64 9.19372 13.6083 9.86946C13.5766 10.5446 13.4701 11.0041 13.3135 11.4086C13.1548 11.8319 12.9054 12.2153 12.5826 12.5319C12.2657 12.8541 11.8824 13.1035 11.4594 13.2627C11.0556 13.4193 10.5953 13.5258 9.92088 13.5575C9.2445 13.5873 9.02961 13.5955 7.30729 13.5955C5.58498 13.5955 5.37009 13.5892 4.69371 13.5575C4.01924 13.5258 3.55966 13.4193 3.15523 13.2627C2.73199 13.1039 2.3486 12.8545 2.03195 12.5319C1.70957 12.215 1.46015 11.8317 1.30106 11.4086C1.14385 11.0048 1.03799 10.5446 1.0063 9.86946C0.975869 9.19372 0.968262 8.97883 0.968262 7.25651C0.968262 5.5342 0.974601 5.3193 1.0063 4.64356C1.03799 3.96846 1.14385 3.50888 1.30106 3.10445C1.45969 2.68111 1.70917 2.29769 2.03195 1.98117C2.34869 1.65866 2.73205 1.40922 3.15523 1.25028C3.55902 1.09307 4.0186 0.98721 4.69371 0.955515C5.37072 0.925721 5.58561 0.91748 7.30793 0.91748" fill="white"/>
</svg>
